<svg width="251" height="48" viewBox="0 0 251 48" fill="none" xmlns="http://www.w3.org/2000/svg">
<path d="M199.789 16.2495C199.045 16.2195 198.302 16.344 197.608 16.6152C196.914 16.8863 196.284 17.2983 195.757 17.825C194.684 19.0625 194.063 20.6273 193.995 22.2637H205.075C205.131 20.6582 204.614 19.0851 203.618 17.825C203.136 17.2949 202.543 16.8785 201.881 16.606C201.219 16.3335 200.504 16.2117 199.789 16.2495ZM206.659 28.9555C206.802 28.956 206.943 28.9881 207.072 29.0497C207.2 29.1112 207.314 29.2005 207.404 29.3113C207.62 29.5591 207.733 29.8807 207.718 30.2091C207.718 30.8614 207.26 31.4713 206.345 32.0134C204.524 33.1241 202.431 33.7104 200.297 33.7075C199.008 33.7745 197.719 33.576 196.51 33.1243C195.3 32.6726 194.196 31.9774 193.267 31.0816C191.573 29.3197 190.726 26.9056 190.726 23.8138C190.689 22.0203 191.078 20.2437 191.861 18.6297C192.566 17.1744 193.671 15.9495 195.046 15.0975C196.468 14.2479 198.099 13.8109 199.755 13.8353C200.861 13.787 201.965 13.9802 202.989 14.4015C204.013 14.8228 204.933 15.4621 205.685 16.2749C207.229 18.1154 208.017 20.4742 207.887 22.8735C207.922 23.2772 207.811 23.6799 207.574 24.0086C207.438 24.138 207.277 24.2367 207.1 24.2981C206.923 24.3595 206.735 24.3821 206.549 24.3644H193.894C194.131 28.8821 196.265 31.1409 200.297 31.1409C201.191 31.162 202.082 31.0302 202.932 30.7513C203.742 30.4244 204.529 30.0424 205.287 29.6077C205.693 29.2922 206.16 29.0643 206.659 28.9385V28.9555Z" fill="#2B3553"/>
<path d="M227.293 14.8433C227.394 14.5616 227.581 14.3186 227.827 14.1484C228.073 13.9783 228.366 13.8895 228.666 13.8946C229.058 13.8936 229.437 14.035 229.733 14.2927C229.881 14.4093 230.001 14.5588 230.081 14.7293C230.162 14.8998 230.202 15.0867 230.199 15.2753C230.202 15.4938 230.149 15.7094 230.046 15.9022L219.034 39.6963C218.911 39.9754 218.704 40.2092 218.442 40.3655C218.222 40.517 217.963 40.5996 217.696 40.6026C217.307 40.6017 216.931 40.4603 216.637 40.2045C216.496 40.0928 216.384 39.9494 216.309 39.7861C216.234 39.6227 216.198 39.4439 216.205 39.2643C216.206 39.0453 216.262 38.83 216.366 38.6375L219.111 32.708L211.335 15.9022C211.234 15.7209 211.181 15.5167 211.182 15.3092C211.184 15.1123 211.231 14.9184 211.319 14.7423C211.407 14.5662 211.534 14.4124 211.69 14.2927C212.022 14.0176 212.437 13.8651 212.868 13.8607C213.133 13.8618 213.393 13.9414 213.613 14.0895C213.874 14.2479 214.08 14.481 214.206 14.7586L220.762 29.4891L227.293 14.8433Z" fill="#2B3553"/>
<path d="M242.566 16.2495C241.819 16.2172 241.073 16.3405 240.376 16.6117C239.679 16.883 239.046 17.2961 238.517 17.825C237.444 19.0625 236.823 20.6274 236.755 22.2637H247.86C247.924 20.6584 247.41 19.0834 246.412 17.825C245.928 17.2931 245.332 16.8757 244.667 16.6032C244.001 16.3306 243.284 16.2098 242.566 16.2495ZM249.436 28.9555C249.579 28.956 249.72 28.9882 249.848 29.0497C249.977 29.1112 250.091 29.2006 250.181 29.3113C250.397 29.5592 250.509 29.8807 250.495 30.2092C250.495 30.8614 250.037 31.4713 249.122 32.0134C248.188 32.5619 247.185 32.9862 246.141 33.2756C245.138 33.5305 244.108 33.6614 243.074 33.6652C241.785 33.7322 240.496 33.5337 239.286 33.082C238.077 32.6303 236.973 31.935 236.044 31.0393C234.349 29.2774 233.502 26.8633 233.502 23.7715C233.465 21.978 233.854 20.2014 234.637 18.5874C235.343 17.1321 236.448 15.9072 237.822 15.0551C239.245 14.2056 240.876 13.7686 242.532 13.793C243.638 13.7446 244.742 13.9378 245.766 14.3591C246.79 14.7804 247.71 15.4197 248.462 16.2326C250.006 18.0731 250.794 20.4319 250.664 22.8312C250.699 23.2349 250.587 23.6376 250.351 23.9663C250.215 24.0957 250.054 24.1944 249.877 24.2558C249.7 24.3172 249.512 24.3398 249.326 24.3221H236.67C236.908 28.8398 239.042 31.0986 243.074 31.0986C243.968 31.119 244.859 30.9872 245.709 30.7089C246.519 30.3821 247.306 30 248.063 29.5654C248.473 29.2649 248.94 29.0516 249.436 28.9386V28.9555Z" fill="#2B3553"/>
<path d="M78.8617 33.6482C77.1967 33.6776 75.5547 33.2561 74.1097 32.4284C72.7348 31.6103 71.628 30.4094 70.9247 28.9724C70.1975 27.3337 69.8253 25.5597 69.8326 23.7669C69.8399 21.9741 70.2265 20.2031 70.967 18.5704C71.7015 17.1106 72.8316 15.8866 74.2283 15.0382C75.6757 14.182 77.3327 13.745 79.0142 13.776C80.0126 13.7758 81.0056 13.9213 81.962 14.208C82.89 14.4407 83.7682 14.8396 84.554 15.3855C84.946 15.6273 85.2811 15.9509 85.5366 16.3342C85.7466 16.6182 85.8568 16.9636 85.85 17.3168C85.864 17.6451 85.7518 17.9663 85.5366 18.2147C85.4499 18.3293 85.3369 18.4214 85.2072 18.4833C85.0775 18.5453 84.9348 18.5751 84.7912 18.5704C84.5834 18.5657 84.3799 18.5105 84.1982 18.4095C84.0096 18.3194 83.8283 18.2146 83.6561 18.0961C83.5674 18.0249 83.474 17.9599 83.3766 17.9012C82.7543 17.4906 82.0966 17.1362 81.4114 16.8424C80.7004 16.5612 79.9393 16.4286 79.1751 16.4528C78.3289 16.4091 77.4841 16.5632 76.7078 16.9029C75.9315 17.2425 75.2449 17.7584 74.7026 18.4095C73.5678 19.9678 73.0108 21.8726 73.1271 23.7968C73.0047 25.706 73.5629 27.5968 74.7026 29.1333C75.258 29.7722 75.9518 30.2759 76.7313 30.6062C77.5107 30.9365 78.3552 31.0846 79.2005 31.0393C79.9788 31.0574 80.7531 30.9221 81.4791 30.6411C82.1703 30.3597 82.8292 30.0047 83.4444 29.5823C83.7324 29.3959 84.0034 29.2435 84.2914 29.1079C84.4976 28.9949 84.726 28.9284 84.9606 28.9131C85.0978 28.911 85.2335 28.9423 85.356 29.0043C85.4785 29.0662 85.5841 29.1571 85.6637 29.2689C85.8802 29.5198 85.9923 29.8442 85.9771 30.1752C85.9812 30.5085 85.8869 30.8356 85.706 31.1155C85.4172 31.4702 85.0707 31.7737 84.6811 32.0134C83.8603 32.5559 82.9601 32.9674 82.0128 33.2332C80.9872 33.519 79.9264 33.6588 78.8617 33.6482Z" fill="#2B3553"/>
<path d="M98.8951 31.0393C99.7091 31.088 100.523 30.9465 101.273 30.626C102.023 30.3054 102.688 29.8147 103.215 29.1927C104.232 27.9305 104.748 26.1178 104.748 23.7291C104.869 21.8133 104.328 19.9143 103.215 18.3502C102.67 17.7445 102.004 17.2601 101.26 16.9285C100.516 16.597 99.7098 16.4256 98.8951 16.4256C98.0803 16.4256 97.2747 16.597 96.5304 16.9285C95.7862 17.2601 95.12 17.7445 94.575 18.3502C93.4622 19.9143 92.9209 21.8133 93.0418 23.7291C92.9165 25.6522 93.4416 27.5617 94.5327 29.1503C95.0631 29.7824 95.7335 30.2822 96.4907 30.6101C97.248 30.938 98.0712 31.0849 98.8951 31.0393ZM98.8951 33.6652C97.2162 33.698 95.5597 33.2766 94.1007 32.4454C92.7302 31.6245 91.6269 30.4241 90.9242 28.9894C90.1594 27.3433 89.7827 25.5437 89.823 23.7291C89.7809 21.9279 90.1579 20.1417 90.9242 18.5111C91.6209 17.0614 92.7247 15.8458 94.1007 15.0128C95.5719 14.2121 97.2201 13.7926 98.8951 13.7926C100.57 13.7926 102.218 14.2121 103.689 15.0128C105.08 15.8285 106.188 17.049 106.866 18.5111C107.656 20.1348 108.045 21.9241 108.001 23.7291C108.042 25.5474 107.653 27.3496 106.866 28.9894C106.182 30.4365 105.074 31.6417 103.689 32.4454C102.229 33.2707 100.572 33.6862 98.8951 33.6482V33.6652Z" fill="#2B3553"/>
<path d="M120.368 33.6482C119.202 33.6529 118.041 33.5077 116.912 33.2162C115.903 32.9536 114.938 32.5425 114.049 31.9965C113.668 31.7659 113.322 31.4805 113.024 31.1494C112.84 30.8429 112.746 30.4905 112.753 30.1329C112.733 29.8265 112.83 29.524 113.024 29.2858C113.121 29.1723 113.242 29.0815 113.378 29.0201C113.514 28.9586 113.662 28.9278 113.812 28.9301C114.312 29.0037 114.784 29.205 115.184 29.5145C115.922 29.965 116.698 30.3477 117.505 30.6581C118.434 30.9332 119.4 31.0618 120.368 31.0393C121.515 31.1056 122.657 30.8472 123.663 30.2938C124.036 30.0731 124.342 29.7559 124.549 29.3757C124.756 28.9956 124.857 28.5665 124.841 28.1338C124.867 27.6392 124.714 27.1518 124.409 26.7616C124.005 26.3199 123.49 25.9951 122.918 25.8213C121.91 25.4523 120.873 25.1689 119.817 24.9743C118.035 24.6971 116.342 24.0099 114.871 22.9667C114.382 22.5517 113.994 22.031 113.735 21.4441C113.477 20.8571 113.356 20.2192 113.38 19.5785C113.362 18.509 113.692 17.4626 114.32 16.5968C115.004 15.6788 115.923 14.962 116.98 14.5215C118.185 14.0116 119.483 13.7578 120.792 13.776C121.787 13.7728 122.778 13.9184 123.731 14.2081C124.636 14.4451 125.495 14.8316 126.272 15.3516C126.637 15.5462 126.949 15.827 127.181 16.1694C127.412 16.5119 127.557 16.9057 127.602 17.3168C127.607 17.6284 127.495 17.9307 127.289 18.1639C127.197 18.2726 127.083 18.36 126.954 18.42C126.826 18.48 126.685 18.5111 126.543 18.5112C126.021 18.4221 125.532 18.1938 125.129 17.8504C124.474 17.4172 123.779 17.0484 123.053 16.7493C122.272 16.4639 121.445 16.3288 120.614 16.3511C119.555 16.3074 118.51 16.6043 117.632 17.1982C117.282 17.4449 116.998 17.7743 116.806 18.157C116.614 18.5398 116.52 18.964 116.531 19.3921C116.507 19.893 116.644 20.3884 116.921 20.8067C117.308 21.2158 117.779 21.5366 118.301 21.7469C119.208 22.0826 120.14 22.346 121.088 22.5347C122.506 22.8171 123.889 23.2516 125.213 23.8307C126.065 24.1844 126.799 24.7717 127.331 25.5249C127.774 26.315 127.991 27.2117 127.958 28.1169C127.97 28.9052 127.786 29.6841 127.422 30.3836C127.059 31.083 126.526 31.6809 125.874 32.1235C124.246 33.2005 122.318 33.7343 120.368 33.6482Z" fill="#2B3553"/>
<path d="M155.251 13.776C159.492 13.776 161.612 16.3031 161.612 21.3573V31.9965C161.624 32.213 161.591 32.4297 161.517 32.6335C161.443 32.8373 161.328 33.024 161.18 33.1823C160.862 33.4464 160.458 33.585 160.045 33.572C159.619 33.5853 159.202 33.4473 158.868 33.1823C158.719 33.024 158.605 32.8373 158.531 32.6335C158.456 32.4297 158.424 32.213 158.436 31.9965V21.4335C158.551 20.0955 158.217 18.7572 157.487 17.6302C157.122 17.2188 156.667 16.8981 156.157 16.6937C155.646 16.4893 155.095 16.4068 154.548 16.4528C153.838 16.4172 153.13 16.5436 152.477 16.8225C151.824 17.1013 151.243 17.5253 150.778 18.0622C149.805 19.2978 149.314 20.8453 149.397 22.4161V31.9965C149.409 32.216 149.374 32.4355 149.293 32.6401C149.213 32.8447 149.09 33.0296 148.932 33.1823C148.605 33.4344 148.205 33.5712 147.792 33.5712C147.38 33.5712 146.979 33.4344 146.653 33.1823C146.505 33.024 146.39 32.8373 146.316 32.6335C146.242 32.4297 146.209 32.213 146.221 31.9965V21.4335C146.334 20.0968 146.004 18.7601 145.281 17.6302C144.907 17.2163 144.443 16.8945 143.924 16.6902C143.405 16.486 142.846 16.4047 142.291 16.4528C141.582 16.424 140.876 16.5535 140.224 16.8319C139.572 17.1103 138.99 17.5306 138.521 18.0622C137.551 19.299 137.063 20.8464 137.149 22.4161V31.9965C137.16 32.213 137.128 32.4297 137.054 32.6335C136.98 32.8373 136.865 33.024 136.717 33.1823C136.409 33.4417 136.018 33.5829 135.616 33.5805C135.189 33.5938 134.772 33.4557 134.438 33.1908C134.29 33.0324 134.175 32.8458 134.101 32.642C134.027 32.4382 133.995 32.2215 134.006 32.0049V15.4278C133.997 15.2191 134.03 15.0107 134.104 14.8154C134.179 14.6202 134.292 14.4422 134.438 14.2927C134.761 14.0034 135.182 13.8488 135.616 13.8607C135.818 13.8545 136.019 13.8896 136.207 13.9638C136.395 14.0381 136.565 14.1501 136.708 14.2927C136.855 14.4329 136.969 14.6032 137.044 14.7918C137.119 14.9804 137.151 15.1829 137.14 15.3855V17.2744C137.673 16.1975 138.505 15.2974 139.538 14.6824C140.612 14.0668 141.832 13.7536 143.07 13.776C146.06 13.776 148.008 15.0382 148.923 17.5455C149.475 16.3958 150.36 15.4393 151.464 14.801C152.609 14.1208 153.919 13.7663 155.251 13.776Z" fill="#2B3553"/>
<path d="M176.52 31.0393C177.334 31.088 178.148 30.9465 178.898 30.626C179.648 30.3055 180.313 29.8147 180.84 29.1927C181.857 27.9305 182.373 26.1178 182.373 23.7291C182.494 21.8134 181.953 19.9143 180.84 18.3502C180.295 17.7445 179.629 17.2601 178.885 16.9286C178.141 16.597 177.335 16.4257 176.52 16.4257C175.705 16.4257 174.9 16.597 174.155 16.9286C173.411 17.2601 172.745 17.7445 172.2 18.3502C171.083 19.9125 170.542 21.8129 170.667 23.7291C170.542 25.6522 171.067 27.5617 172.158 29.1503C172.688 29.7824 173.359 30.2822 174.116 30.6101C174.873 30.938 175.696 31.0849 176.52 31.0393ZM176.52 33.6652C174.841 33.698 173.185 33.2766 171.726 32.4454C170.351 31.6291 169.247 30.4275 168.549 28.9894C167.784 27.3433 167.408 25.5437 167.448 23.7291C167.406 21.928 167.783 20.1417 168.549 18.5112C169.241 17.0577 170.346 15.8408 171.726 15.0128C173.195 14.2121 174.842 13.7925 176.516 13.7925C178.189 13.7925 179.836 14.2121 181.306 15.0128C182.699 15.828 183.81 17.0484 184.491 18.5112C185.277 20.1362 185.666 21.9245 185.626 23.7291C185.663 25.547 185.274 27.3483 184.491 28.9894C183.803 30.4368 182.693 31.6418 181.306 32.4454C179.849 33.2716 178.195 33.6872 176.52 33.6482V33.6652Z" fill="#2B3553"/>
<path fill-rule="evenodd" clip-rule="evenodd" d="M38.1095 15.5887C34.7564 14.0035 31.1027 13.1543 27.3941 13.0984C23.6448 13.1561 19.9521 14.0229 16.5686 15.6396H16.6279C15.4927 17.5407 14.9063 19.7192 14.9338 21.9333C14.9195 23.9748 15.4175 25.9873 16.3823 27.7865C17.3291 29.5712 18.7099 31.0889 20.3974 32.1997C22.0796 33.331 24.0139 34.032 26.0304 34.2412C26.6657 34.2835 27.1316 34.3005 27.428 34.3005L28.8257 34.2412C32.5951 34.2412 38.5415 31.7 41.0489 30.3785C44.2122 28.5428 47.12 26.2985 49.6974 23.7036C49.6974 23.7036 41.7943 17.2405 38.1095 15.5887ZM11.7742 18.3332C11.2714 20.3789 11.1901 22.5054 11.5352 24.5835C11.8803 26.6615 12.6447 28.6476 13.7818 30.4209C10.6264 28.5717 7.72972 26.313 5.16711 23.7036C7.17819 21.6902 9.39237 19.8905 11.7742 18.3332ZM27.3941 9.60845C24.5197 9.62171 21.6637 10.0701 18.9235 10.9383C16.4097 11.7509 13.9947 12.8419 11.7234 14.1911C9.74131 15.3305 7.83945 16.604 6.03111 18.0029C4.74515 19.0199 3.51511 20.1058 2.34637 21.2556L1.05883 22.5686L0 23.7291L1.05883 24.8811L2.22778 26.1008C3.29919 27.1588 4.43047 28.1543 5.61605 29.0825C7.27123 30.4116 9.01142 31.6311 10.8255 32.7334C12.9487 34.012 15.1896 35.0842 17.5173 35.9353C20.0404 36.9049 22.6914 37.5013 25.3866 37.7057C26.7209 37.8525 28.0674 37.8525 29.4017 37.7057C32.097 37.5022 34.7482 36.9058 37.2709 35.9353C39.6015 35.0843 41.8451 34.0121 43.9712 32.7334C45.7794 31.6188 47.5112 30.385 49.1553 29.0402C50.3409 28.112 51.4722 27.1164 52.5436 26.0585L53.721 24.8387L54.7798 23.6867L53.7379 22.5686L52.4504 21.2387C51.2816 20.0888 50.0516 19.003 48.7656 17.9859C46.9601 16.5833 45.0579 15.3095 43.0734 14.1741C40.8042 12.8265 38.3922 11.7356 35.8818 10.9214C33.1372 10.0436 30.2756 9.58665 27.3941 9.5661V9.60845Z" fill="#2B3553"/>
<path d="M30.4606 9.71859C32.3314 8.01224 34.3657 6.49431 36.5341 5.18679C38.9567 3.78066 41.5317 2.85735 43.1751 4.14489C45.2843 5.83903 44.1153 10.7774 41.5317 16.1478C39.5789 20.0811 37.2559 23.8194 34.5943 27.3122C32.3265 30.3737 29.853 33.2774 27.1909 36.0031C21.668 41.4836 15.332 45.8884 12.3333 44.0333C11.3423 43.4234 10.995 42.3391 11.0035 40.8652C11.175 38.4121 11.7801 36.0087 12.7908 33.7668C12.0623 33.3179 10.3597 32.3353 9.74132 32.0049C9.08061 33.3772 7.20012 37.7057 7.91166 41.509C8.18981 43.2395 9.12043 44.7976 10.5122 45.8629C14.2223 48.8023 18.5254 47.4131 23.1589 44.1265C26.113 41.9844 28.8482 39.5556 31.3246 36.8756C38.7025 29.0571 44.1068 20.6119 46.5718 13.0645C49.0368 5.51714 45.8603 3.00983 44.2508 1.79852C42.2856 0.553331 37.3727 -2.50458 25.2088 9.71859C27.3942 9.59153 30.4182 9.71859 30.4182 9.71859H30.4606Z" fill="#DE2F21"/>
<path fill-rule="evenodd" clip-rule="evenodd" d="M11.3253 21.9333C11.3287 20.7056 11.4795 19.4827 11.7742 18.2909C9.3923 19.8641 7.1783 21.6779 5.16711 23.7036C7.74055 26.303 10.649 28.5478 13.8157 30.3785C12.184 27.8646 11.3187 24.9303 11.3253 21.9333ZM32.9255 10.1336C31.105 9.7622 29.2521 9.57209 27.3941 9.5661C24.52 9.58348 21.6647 10.0318 18.9235 10.896C16.4097 11.7085 13.9947 12.7995 11.7234 14.1487C9.74318 15.2911 7.84152 16.5646 6.03111 17.9605C4.74515 18.9776 3.51511 20.0634 2.34637 21.2133L1.05883 22.5686L0 23.7291L1.05883 24.8895L2.22778 26.1008C3.29704 27.1611 4.42846 28.1568 5.61605 29.0825C7.27123 30.4116 9.01142 31.6311 10.8255 32.7334C12.6183 33.8087 14.4934 34.7405 16.4331 35.5202L19.1776 31.2849C17.8265 30.1262 16.744 28.6872 16.0052 27.0679C15.2665 25.4485 14.8893 23.6877 14.8999 21.9079C14.8724 19.6938 15.4588 17.5153 16.594 15.6142H16.5347C19.9182 13.9975 23.6109 13.1307 27.3603 13.073C28.5091 13.0755 29.656 13.1661 30.7909 13.344L32.9255 10.1336Z" fill="#2B3553"/>
<path d="M23.5992 18.1808C24.6162 17.1813 25.985 16.6213 27.411 16.6213C28.8369 16.6213 30.2058 17.1813 31.2228 18.1808C31.7191 18.6716 32.1131 19.256 32.3821 19.9001C32.651 20.5442 32.7895 21.2353 32.7895 21.9333C32.7895 22.6313 32.651 23.3224 32.3821 23.9665C32.1131 24.6106 31.7191 25.195 31.2228 25.6858C30.2079 26.6893 28.8382 27.2522 27.411 27.2522C25.9837 27.2522 24.614 26.6893 23.5992 25.6858C23.1049 25.1939 22.7126 24.6091 22.445 23.9652C22.1773 23.3212 22.0396 22.6307 22.0396 21.9333C22.0396 21.2359 22.1773 20.5454 22.445 19.9015C22.7126 19.2575 23.1049 18.6727 23.5992 18.1808Z" fill="#DE2F21"/>
</svg>
